<svg width="135" height="135" viewBox="0 0 135 135" fill="none" xmlns="http://www.w3.org/2000/svg">
<rect width="135" height="135" rx="10" fill="#1B263B"/>
<path d="M41.2841 103V33.1818H70.3977C75.625 33.1818 80 33.9205 83.5227 35.3977C87.0682 36.875 89.7273 38.9432 91.5 41.6023C93.2955 44.2614 94.1932 47.3409 94.1932 50.8409C94.1932 53.5 93.6364 55.875 92.5227 57.9659C91.4091 60.0341 89.875 61.75 87.9205 63.1136C85.9659 64.4773 83.7045 65.4318 81.1364 65.9773V66.6591C83.9545 66.7955 86.5568 67.5568 88.9432 68.9432C91.3523 70.3295 93.2841 72.2614 94.7386 74.7386C96.1932 77.1932 96.9205 80.1023 96.9205 83.4659C96.9205 87.2159 95.9659 90.5682 94.0568 93.5227C92.1477 96.4545 89.3864 98.7727 85.7727 100.477C82.1591 102.159 77.7727 103 72.6136 103H41.2841ZM58.1591 89.3977H68.5909C72.25 89.3977 74.9432 88.7045 76.6705 87.3182C78.4205 85.9318 79.2955 84 79.2955 81.5227C79.2955 79.7273 78.875 78.1818 78.0341 76.8864C77.1932 75.5682 76 74.5568 74.4545 73.8523C72.9091 73.125 71.0568 72.7614 68.8977 72.7614H58.1591V89.3977ZM58.1591 61.8864H67.5C69.3409 61.8864 70.9773 61.5795 72.4091 60.9659C73.8409 60.3523 74.9545 59.4659 75.75 58.3068C76.5682 57.1477 76.9773 55.75 76.9773 54.1136C76.9773 51.7727 76.1477 49.9318 74.4886 48.5909C72.8295 47.25 70.5909 46.5795 67.7727 46.5795H58.1591V61.8864Z" fill="white"/>
</svg>
